HIERARCHY
ROOT Hips
{
  OFFSET 40.9192 92.6879 18.85
  CHANNELS 6 Xposition Yposition Zposition Zrotation Xrotation Yrotation
  JOINT LeftUpLeg
  {
    OFFSET 8.64259 1.95398 -2.38835
    CHANNELS 3 Zrotation Xrotation Yrotation
    JOINT LeftLeg
    {
      OFFSET 43.7702 0 0
      CHANNELS 3 Zrotation Xrotation Yrotation
      JOINT LeftFoot
      {
        OFFSET 40.6238 0 0
        CHANNELS 3 Zrotation Xrotation Yrotation
        JOINT LeftToeBase
        {
          OFFSET 12.7242 0 0
          CHANNELS 3 Zrotation Xrotation Yrotation
          End Site
          {
            OFFSET 0 0 0
          }
        }
      }
    }
  }
  JOINT RightUpLeg
  {
    OFFSET -8.2249 1.95398 -2.59336
    CHANNELS 3 Zrotation Xrotation Yrotation
    JOINT RightLeg
    {
      OFFSET 43.5653 0 0
      CHANNELS 3 Zrotation Xrotation Yrotation
      JOINT RightFoot
      {
        OFFSET 40.6238 0 0
        CHANNELS 3 Zrotation Xrotation Yrotation
        JOINT RightToeBase
        {
          OFFSET 12.7242 0 0
          CHANNELS 3 Zrotation Xrotation Yrotation
          End Site
          {
            OFFSET 0 0 0
          }
        }
      }
    }
  }
  JOINT Spine
  {
    OFFSET 0.165834 0.87714 6.61349
    CHANNELS 3 Zrotation Xrotation Yrotation
    JOINT Spine1
    {
      OFFSET 7.38963 1.71661e-005 0
      CHANNELS 3 Zrotation Xrotation Yrotation
      JOINT Spine2
      {
        OFFSET 11.9445 1.14441e-005 0
        CHANNELS 3 Zrotation Xrotation Yrotation
        JOINT Spine3
        {
          OFFSET 14.7254 4.19617e-005 0
          CHANNELS 3 Zrotation Xrotation Yrotation
          JOINT Spine4
          {
            OFFSET 10.9679 0 0
            CHANNELS 3 Zrotation Xrotation Yrotation
            JOINT RightShoulder
            {
              OFFSET 2.46616 -1.6653 3.69651
              CHANNELS 3 Zrotation Xrotation Yrotation
              JOINT RightArm
              {
                OFFSET 13.0012 0 0
                CHANNELS 3 Zrotation Xrotation Yrotation
                JOINT RightForeArm
                {
                  OFFSET 28.7848 1.52588e-005 0
                  CHANNELS 3 Zrotation Xrotation Yrotation
                  JOINT RightHand
                  {
                    OFFSET 26.5688 1.52588e-005 0
                    CHANNELS 3 Zrotation Xrotation Yrotation
                    End Site
                    {
                      OFFSET 0 0 0
                    }
                  }
                }
              }
            }
            JOINT LeftShoulder
            {
              OFFSET 2.38034 -1.29275 -3.7523
              CHANNELS 3 Zrotation Xrotation Yrotation
              JOINT LeftArm
              {
                OFFSET 16.3182 6.10351e-005 0
                CHANNELS 3 Zrotation Xrotation Yrotation
                JOINT LeftForeArm
                {
                  OFFSET 27.0901 0 0
                  CHANNELS 3 Zrotation Xrotation Yrotation
                  JOINT LeftHand
                  {
                    OFFSET 24.5451 1.52588e-005 0
                    CHANNELS 3 Zrotation Xrotation Yrotation
                    End Site
                    {
                      OFFSET 0 0 0
                    }
                  }
                }
              }
            }
            JOINT Neck
            {
              OFFSET 5.0226 -0.0266342 0
              CHANNELS 3 Zrotation Xrotation Yrotation
              JOINT Head
              {
                OFFSET 6.69363 2.86102e-005 0
                CHANNELS 3 Zrotation Xrotation Yrotation
                End Site
                {
                  OFFSET 0 0 0
                }
              }
            }
          }
        }
      }
    }
  }
}
MOTION
Frames:	7
Frame Time:	0.0416667
51.9947 96.116 14.6932 88.5033 -14.6379 86.9474 -164.909 22.0357 94.821 -19.0346 -1.12468 -7.36897 59.0659 0.191469 -0.969818 39.1444 8.6153 9.88782 169.037 2.67941 82.8246 -18.0371 12.1474 0.280425 68.8588 -3.3199 -1.74446 36.6317 0.368924 -5.56958 0.150163 7.83929 -89.9759 11.1955 0.310154 0.0176486 -0.475449 0.310633 0.00398277 -23.0109 0.290519 0.110055 -2.99822 0.290513 0.110047 93.4323 -44.9098 -96.4575 25.1867 -2.13834 13.7694 -11.5749 -18.3051 -49.8249 -9.84601 -0.928646 3.55547 -96.7645 -49.0514 68.407 -28.5835 8.7102 10.2122 4.10424 8.37777 -30.8084 9.5676 0.639596 2.60921 6.46073 18.8286 -5.6844 -0.190019 20.2592 20.5867 
54.7981 95.6049 13.8097 87.3279 -9.10349 87.6346 -166.825 24.8012 95.2826 -13.1618 -1.64265 -6.47653 60.1477 0.141226 0.348222 38.7728 8.19482 8.24594 168.596 0.339087 83.2278 -16.1984 17.2574 0.979888 68.4574 -3.73367 -1.97052 37.3583 0.3682 -5.69245 0.360504 7.81643 -89.9721 11.2413 0.730524 -0.0165226 -0.42947 0.729062 -0.0486694 -22.9662 0.701696 0.203795 -2.95354 0.701699 0.203793 93.576 -45.2897 -96.15 25.3713 -2.4835 12.6384 -13.4381 -19.8479 -50.6653 -9.55246 -0.868749 2.88251 -96.2736 -49.6629 69.3279 -29.8559 8.50239 12.8132 3.76331 7.27605 -31.1786 9.11323 0.582831 2.31814 5.53976 17.0364 -5.04981 1.5386 18.637 19.8851 
58.5388 94.7926 12.0853 86.0833 -5.49282 88.8478 -167.177 27.1837 95.6057 -11.0698 -7.69198 -6.19849 60.8389 0.0507102 0.954669 36.731 6.36891 9.6042 168.315 -0.165629 83.115 -18.0145 20.7042 1.28026 67.2544 -3.45767 -1.83845 40.4128 0.327713 -6.69256 0.566801 7.76266 -89.8657 11.3482 1.19056 0.148566 -0.322211 1.19594 0.0960054 -22.8611 1.09085 0.499546 -2.84849 1.09086 0.499545 93.3742 -46.003 -96.3467 26.2773 -3.47811 11.0237 -13.8154 -19.9344 -52.1286 -11.3506 -0.965954 2.99386 -94.9155 -49.9456 71.415 -31.4769 7.58882 15.1178 4.5125 7.90412 -30.8952 8.75827 0.566771 2.36583 5.31799 15.616 -5.84832 2.48398 17.4754 19.1166 
63.2709 93.9227 9.0783 85.8251 -0.536624 89.3367 -165.389 30.0508 95.057 -16.8368 -6.27524 -7.79977 62.5109 1.61936 3.25203 35.2366 5.01944 7.89671 167.695 -1.5232 82.2596 -21.1584 19.4431 1.39582 62.1484 -1.88441 -1.00937 47.2336 -0.0978837 -10.263 0.714187 7.81681 -89.8603 11.2397 1.4864 0.13106 -0.430388 1.49074 0.0654915 -22.9716 1.37825 0.571797 -2.95891 1.37827 0.571797 93.7309 -46.0601 -95.7577 28.1237 -4.54346 9.26437 -15.0871 -20.3417 -53.6328 -11.8397 -0.956478 2.64932 -94.2862 -49.7494 72.2876 -32.8891 7.07842 16.758 4.53614 8.03951 -29.8019 8.51742 0.561338 2.43736 6.46838 14.3549 -6.82429 2.40119 16.4041 18.6438 
69.1276 93.5807 4.47166 85.325 1.77623 91.1203 -164.076 31.3138 91.9735 -24.7729 -3.3796 -8.58341 62.5434 2.33097 3.25643 31.7753 2.20883 2.49035 167.454 -0.0911367 78.8967 -27.7715 14.6274 -0.765888 53.2271 0.486871 0.693926 49.7728 -0.720947 -14.542 0.914271 7.88652 -89.7182 11.0997 1.95071 0.372635 -0.569829 1.96523 0.286384 -23.1145 1.74852 0.941839 -3.10183 1.74853 0.941839 93.5595 -46.034 -96.0405 29.4171 -4.85428 8.08299 -16.0916 -21.722 -53.4695 -12.6871 -1.01552 2.80631 -94.5533 -49.9409 71.9477 -32.8635 7.7322 15.9405 3.83008 8.41856 -27.7358 7.61189 0.474551 2.09962 8.82276 12.9082 -7.12786 1.30436 14.9403 17.843 
75.03 93.5637 -0.959393 85.5227 6.98381 91.5431 -164.114 29.5006 89.0251 -29.5263 1.34129 -8.72311 65.739 6.01659 5.78148 24.014 -3.38069 -2.44466 171.599 4.55611 78.5363 -41.1283 10.4287 -4.47318 45.0864 2.11419 2.25753 29.282 1.09683 -17.8326 0.911644 7.86782 -89.753 11.1368 1.92932 0.303717 -0.53275 1.94081 0.218476 -23.0775 1.74882 0.869679 -3.06484 1.74879 0.869675 93.755 -44.5462 -95.9934 32.0038 -5.71199 7.35023 -14.2814 -22.6403 -50.9045 -13.4097 -1.0733 3.02008 -94.933 -49.4536 71.2437 -32.0736 9.20025 14.3039 3.55938 9.80782 -27.2835 6.94915 0.386178 1.47229 8.55411 12.0155 -6.25547 0.443144 13.718 16.7665 
80.3406 93.467 -5.66372 86.2101 15.2195 92.0505 -166.455 25.7407 86.3415 -31.9972 4.94548 -7.53799 71.2207 11.2454 6.54936 20.2405 -6.27004 -2.46454 175.254 10.5367 81.2844 -56.1844 -2.50281 -5.25623 46.1164 2.19107 2.15687 33.4289 0.475342 -11.1419 0.562212 7.97968 -89.7924 10.9135 1.21546 0.298286 -0.756882 1.22738 0.244496 -23.2955 1.06961 0.649832 -3.28288 1.06961 0.649819 93.8855 -44.7612 -95.7385 32.9148 -5.57502 6.76349 -15.9458 -22.8665 -52.0468 -12.3854 -1.1022 3.64231 -96.2115 -48.8022 69.1462 -28.834 9.63622 11.5736 3.15171 7.72634 -30.284 9.10299 0.418819 0.687474 8.20895 11.0449 -6.09095 0.721311 12.7451 16.3458 
